          <svg
            xmlns="http://www.w3.org/2000/svg"
            width="35"
            height="31"
            viewBox="0 0 35 31"
            fill="none"
          >
            <path
              d="M30.7604 4.3589C29.9943 3.59241 29.0846 2.98437 28.0835 2.56953C27.0823 2.15468 26.0092 1.94116 24.9254 1.94116C23.8417 1.94116 22.7686 2.15468 21.7674 2.56953C20.7662 2.98437 19.8566 3.59241 19.0904 4.3589L17.5004 5.9489L15.9104 4.3589C14.3629 2.81136 12.264 1.94196 10.0754 1.94196C7.88687 1.94196 5.78796 2.81136 4.24042 4.3589C2.69288 5.90644 1.82349 8.00535 1.82349 10.1939C1.82349 12.3824 2.69288 14.4814 4.24042 16.0289L5.83042 17.6189L17.5004 29.2889L29.1704 17.6189L30.7604 16.0289C31.5269 15.2628 32.135 14.3531 32.5498 13.3519C32.9646 12.3507 33.1782 11.2776 33.1782 10.1939C33.1782 9.11017 32.9646 8.03706 32.5498 7.03587C32.135 6.03468 31.5269 5.12503 30.7604 4.3589Z"
              stroke="#393636"
              stroke-width="2.5"
              stroke-linecap="round"
              stroke-linejoin="round"
            />
          </svg>